<svg width="81" height="64" viewBox="0 0 81 64" fill="none" xmlns="http://www.w3.org/2000/svg">
<path opacity="0.4" d="M60.8593 64C64.5319 64 67.5659 63.2644 69.9611 61.7931C72.3563 60.3218 74.3523 58.3601 75.9491 55.908C77.5459 53.2925 78.7435 50.3499 79.5419 47.0805C80.1806 43.811 80.5 40.8685 80.5 38.2529C80.5 30.2427 78.504 22.8863 74.512 16.1839C70.3603 9.48147 64.0529 4.08684 55.5898 0L53.4341 4.41379C58.2246 6.53896 62.3762 9.80843 65.8892 14.2222C69.4022 18.636 71.3184 23.1315 71.6377 27.7088C71.9571 30.1609 71.7974 32.4496 71.1587 34.5747C68.2844 31.7957 64.7715 30.4061 60.6198 30.4061C55.989 30.4061 52.0768 31.9591 48.8832 35.0651C45.6896 38.0077 44.0928 42.0945 44.0928 47.3257C44.0928 52.2299 45.7695 56.235 49.1228 59.341C52.3164 62.447 56.2285 64 60.8593 64ZM17.2665 64C20.9391 64 23.9731 63.2644 26.3683 61.7931C28.7635 60.3218 30.7595 58.3601 32.3563 55.908C33.9531 53.2925 35.1507 50.3499 35.9491 47.0805C36.5878 43.811 36.9072 40.8685 36.9072 38.2529C36.9072 30.2427 34.9112 22.8863 30.9192 16.1839C26.7675 9.48147 20.4601 4.08684 11.997 0L9.84132 4.41379C14.6317 6.53896 18.7834 9.80843 22.2964 14.2222C25.8094 18.636 27.7255 23.1315 28.0449 27.7088C28.3643 30.1609 28.2046 32.4496 27.5659 34.5747C24.6916 31.7957 21.1786 30.4061 17.027 30.4061C12.3962 30.4061 8.48402 31.9591 5.29042 35.0651C2.0968 38.0077 0.5 42.0945 0.5 47.3257C0.5 52.2299 2.17665 56.235 5.52994 59.341C8.72356 62.447 12.6357 64 17.2665 64Z" fill="#FAFAFA"/>
</svg>
