<svg width="33" height="32" viewBox="0 0 33 32" fill="none" xmlns="http://www.w3.org/2000/svg">
<path d="M23.1466 20.2199C23.1466 20.4599 23.0933 20.7066 22.98 20.9466C22.8666 21.1866 22.72 21.4133 22.5266 21.6266C22.2 21.9866 21.84 22.2466 21.4333 22.4133C21.0333 22.5799 20.6 22.6666 20.1333 22.6666C19.4533 22.6666 18.7266 22.5066 17.96 22.1799C17.1933 21.8533 16.4266 21.4133 15.6666 20.8599C14.9 20.2999 14.1733 19.6799 13.48 18.9933C12.7933 18.2999 12.1733 17.5733 11.62 16.8133C11.0733 16.0533 10.6333 15.2933 10.3133 14.5399C9.99331 13.7799 9.83331 13.0533 9.83331 12.3599C9.83331 11.9066 9.91331 11.4733 10.0733 11.0733C10.2333 10.6666 10.4866 10.2933 10.84 9.95992C11.2666 9.53992 11.7333 9.33325 12.2266 9.33325C12.4133 9.33325 12.6 9.37325 12.7666 9.45325C12.94 9.53325 13.0933 9.65325 13.2133 9.82659L14.76 12.0066C14.88 12.1733 14.9666 12.3266 15.0266 12.4733C15.0866 12.6133 15.12 12.7533 15.12 12.8799C15.12 13.0399 15.0733 13.1999 14.98 13.3533C14.8933 13.5066 14.7666 13.6666 14.6066 13.8266L14.1 14.3533C14.0266 14.4266 13.9933 14.5133 13.9933 14.6199C13.9933 14.6733 14 14.7199 14.0133 14.7733C14.0333 14.8266 14.0533 14.8666 14.0666 14.9066C14.1866 15.1266 14.3933 15.4133 14.6866 15.7599C14.9866 16.1066 15.3066 16.4599 15.6533 16.8133C16.0133 17.1666 16.36 17.4933 16.7133 17.7933C17.06 18.0866 17.3466 18.2866 17.5733 18.4066C17.6066 18.4199 17.6466 18.4399 17.6933 18.4599C17.7466 18.4799 17.8 18.4866 17.86 18.4866C17.9733 18.4866 18.06 18.4466 18.1333 18.3733L18.64 17.8733C18.8066 17.7066 18.9666 17.5799 19.12 17.4999C19.2733 17.4066 19.4266 17.3599 19.5933 17.3599C19.72 17.3599 19.8533 17.3866 20 17.4466C20.1466 17.5066 20.3 17.5933 20.4666 17.7066L22.6733 19.2733C22.8466 19.3933 22.9666 19.5333 23.04 19.6999C23.1066 19.8666 23.1466 20.0333 23.1466 20.2199Z" stroke="#0A181F" stroke-width="1.5" stroke-miterlimit="10"/>
<circle cx="16.5" cy="16" r="15.5" stroke="#0A181F"/>
</svg>
