<svg width="129" height="24" viewBox="0 0 129 24" fill="none" xmlns="http://www.w3.org/2000/svg">
<path d="M7.54025 9.036V6.316C7.54025 5.228 7.11359 4.684 6.26025 4.684C5.42825 4.684 5.01225 5.228 5.01225 6.316V7.82C5.01225 8.16133 5.04425 8.46 5.10825 8.716C5.17225 8.95067 5.30025 9.17467 5.49225 9.388C5.68425 9.60133 5.96159 9.82533 6.32425 10.06C6.70825 10.2733 7.20959 10.5293 7.82825 10.828L8.91625 11.308C9.51359 11.5853 10.0149 11.8947 10.4203 12.236C10.8256 12.5773 11.1456 12.9933 11.3803 13.484C11.6363 13.9533 11.8176 14.508 11.9243 15.148C12.0309 15.788 12.0843 16.5453 12.0843 17.42V17.932C12.0843 19.8093 11.5723 21.26 10.5483 22.284C9.52425 23.308 8.07359 23.82 6.19625 23.82C4.34025 23.82 2.92159 23.3187 1.94025 22.316C0.95892 21.3133 0.468253 19.852 0.468253 17.932V15.564H4.94825V18.284C4.94825 19.372 5.38559 19.916 6.26025 19.916C7.13492 19.916 7.57225 19.3827 7.57225 18.316V16.684C7.57225 16.3427 7.54025 16.0547 7.47625 15.82C7.41225 15.5853 7.28425 15.3613 7.09225 15.148C6.92159 14.9347 6.65492 14.7213 6.29225 14.508C5.95092 14.2947 5.49225 14.0493 4.91625 13.772L3.70025 13.228C3.10292 12.9507 2.60159 12.6413 2.19625 12.3C1.79092 11.9373 1.46025 11.5107 1.20425 11.02C0.969586 10.5293 0.79892 9.964 0.692253 9.324C0.585586 8.66267 0.532253 7.89467 0.532253 7.02V6.636C0.532253 4.73733 1.02292 3.28666 2.00425 2.284C2.98559 1.28133 4.38292 0.779999 6.19625 0.779999C8.05225 0.779999 9.48159 1.292 10.4843 2.316C11.5083 3.31867 12.0203 4.75867 12.0203 6.636V9.036H7.54025ZM25.542 1.1V23.5H20.582L17.478 8.876H17.222L18.214 23.5H13.734V1.1H18.662L21.862 15.82H22.118L21.062 1.1H25.542ZM36.4003 1.068L38.8003 23.468H34.3203L33.8083 17.932H31.8563L31.3763 23.468H26.8963L29.3923 1.068H36.4003ZM33.4563 14.028L33.0083 8.684H32.6883L32.2083 14.028H33.4563ZM45.675 1.1C47.5737 1.1 49.0243 1.72933 50.027 2.988C51.0297 4.24667 51.531 6.20933 51.531 8.876V8.94C51.531 10.3053 51.403 11.4573 51.147 12.396C50.9123 13.3347 50.5497 14.092 50.059 14.668C49.5897 15.244 48.9817 15.66 48.235 15.916C47.5097 16.172 46.6457 16.3 45.643 16.3H44.619V23.5H40.139V1.1H45.675ZM44.619 12.428H45.643C46.155 12.428 46.5177 12.2893 46.731 12.012C46.9443 11.7133 47.051 11.2333 47.051 10.572V6.956C47.051 6.252 46.9443 5.75067 46.731 5.452C46.5177 5.15333 46.155 5.004 45.643 5.004H44.619V12.428ZM60.069 9.036V6.316C60.069 5.228 59.6423 4.684 58.789 4.684C57.957 4.684 57.541 5.228 57.541 6.316V7.82C57.541 8.16133 57.573 8.46 57.637 8.716C57.701 8.95067 57.829 9.17467 58.021 9.388C58.213 9.60133 58.4903 9.82533 58.853 10.06C59.237 10.2733 59.7383 10.5293 60.357 10.828L61.445 11.308C62.0423 11.5853 62.5437 11.8947 62.949 12.236C63.3543 12.5773 63.6743 12.9933 63.909 13.484C64.165 13.9533 64.3463 14.508 64.453 15.148C64.5597 15.788 64.613 16.5453 64.613 17.42V17.932C64.613 19.8093 64.101 21.26 63.077 22.284C62.053 23.308 60.6023 23.82 58.725 23.82C56.869 23.82 55.4503 23.3187 54.469 22.316C53.4877 21.3133 52.997 19.852 52.997 17.932V15.564H57.477V18.284C57.477 19.372 57.9143 19.916 58.789 19.916C59.6637 19.916 60.101 19.3827 60.101 18.316V16.684C60.101 16.3427 60.069 16.0547 60.005 15.82C59.941 15.5853 59.813 15.3613 59.621 15.148C59.4503 14.9347 59.1837 14.7213 58.821 14.508C58.4797 14.2947 58.021 14.0493 57.445 13.772L56.229 13.228C55.6317 12.9507 55.1303 12.6413 54.725 12.3C54.3197 11.9373 53.989 11.5107 53.733 11.02C53.4983 10.5293 53.3277 9.964 53.221 9.324C53.1143 8.66267 53.061 7.89467 53.061 7.02V6.636C53.061 4.73733 53.5517 3.28666 54.533 2.284C55.5143 1.28133 56.9117 0.779999 58.725 0.779999C60.581 0.779999 62.0103 1.292 63.013 2.316C64.037 3.31867 64.549 4.75867 64.549 6.636V9.036H60.069ZM76.857 4.972H73.561V23.468H69.081V4.972H65.817V1.068H76.857V4.972ZM82.6632 1.1V18.284C82.6632 18.9027 82.7912 19.34 83.0472 19.596C83.3032 19.8307 83.5912 19.948 83.9112 19.948C84.2312 19.948 84.5086 19.8307 84.7432 19.596C84.9992 19.34 85.1272 18.9027 85.1272 18.284V1.1H89.6073V17.964C89.6073 19.9267 89.0846 21.3987 88.0392 22.38C87.0152 23.34 85.6179 23.82 83.8472 23.82C82.0979 23.82 80.7112 23.34 79.6872 22.38C78.6846 21.42 78.1832 19.948 78.1832 17.964V1.1H82.6632ZM96.9248 1.1C98.6741 1.1 100.082 1.548 101.149 2.444C102.215 3.34 102.749 4.748 102.749 6.668V17.932C102.749 19.852 102.215 21.26 101.149 22.156C100.082 23.052 98.6741 23.5 96.9248 23.5H91.2928V1.1H96.9248ZM95.8048 19.596H96.8928C97.2981 19.596 97.6288 19.4893 97.8848 19.276C98.1408 19.0413 98.2688 18.6147 98.2688 17.996V6.604C98.2688 5.98533 98.1408 5.56933 97.8848 5.356C97.6288 5.12133 97.2981 5.004 96.8928 5.004H95.8048V19.596ZM108.913 1.1V23.5H104.433V1.1H108.913ZM110.603 6.604C110.603 4.62 111.115 3.15867 112.139 2.22C113.185 1.26 114.582 0.779999 116.331 0.779999C118.123 0.779999 119.542 1.27067 120.587 2.252C121.654 3.212 122.187 4.66267 122.187 6.604V17.964C122.187 19.9267 121.654 21.3987 120.587 22.38C119.542 23.34 118.123 23.82 116.331 23.82C114.582 23.82 113.185 23.34 112.139 22.38C111.115 21.42 110.603 19.948 110.603 17.964V6.604ZM115.083 18.284C115.083 18.9027 115.211 19.34 115.467 19.596C115.745 19.8307 116.054 19.948 116.395 19.948C116.758 19.948 117.067 19.8307 117.323 19.596C117.579 19.34 117.707 18.9027 117.707 18.284V6.316C117.707 5.69733 117.579 5.27067 117.323 5.036C117.067 4.80133 116.758 4.684 116.395 4.684C116.054 4.684 115.745 4.80133 115.467 5.036C115.211 5.27067 115.083 5.69733 115.083 6.316V18.284ZM123.933 21.26C123.933 20.5133 124.125 19.9373 124.509 19.532C124.893 19.1053 125.458 18.892 126.205 18.892C126.93 18.892 127.485 19.1053 127.869 19.532C128.274 19.9587 128.477 20.5453 128.477 21.292C128.477 22.0387 128.285 22.6253 127.901 23.052C127.517 23.4573 126.952 23.66 126.205 23.66C125.458 23.66 124.893 23.4573 124.509 23.052C124.125 22.6253 123.933 22.028 123.933 21.26Z" fill="#0A181F"/>
</svg>
