<svg width="41" height="41" viewBox="0 0 41 41" fill="none" xmlns="http://www.w3.org/2000/svg">
<path d="M23.75 20.5L18.5 17.5V23.5L23.75 20.5Z" fill="#0A181F"/>
<path fill-rule="evenodd" clip-rule="evenodd" d="M0.5 20.5C0.5 9.45431 9.45431 0.5 20.5 0.5C31.5457 0.5 40.5 9.45431 40.5 20.5C40.5 31.5457 31.5457 40.5 20.5 40.5C9.45431 40.5 0.5 31.5457 0.5 20.5ZM28.25 13.875C29.125 14.125 29.75 14.75 30 15.625C30.5 17.25 30.5 20.5 30.5 20.5C30.5 20.5 30.5 23.75 30.125 25.375C29.875 26.25 29.25 26.875 28.375 27.125C26.75 27.5 20.5 27.5 20.5 27.5C20.5 27.5 14.125 27.5 12.625 27.125C11.75 26.875 11.125 26.25 10.875 25.375C10.5 23.75 10.5 20.5 10.5 20.5C10.5 20.5 10.5 17.25 10.75 15.625C11 14.75 11.625 14.125 12.5 13.875C14.125 13.5 20.375 13.5 20.375 13.5C20.375 13.5 26.75 13.5 28.25 13.875Z" fill="#0A181F"/>
</svg>
