<svg width="41" height="41" viewBox="0 0 41 41" fill="none" xmlns="http://www.w3.org/2000/svg">
<path fill-rule="evenodd" clip-rule="evenodd" d="M0.5 20.5C0.5 9.45431 9.45431 0.5 20.5 0.5C31.5457 0.5 40.5 9.45431 40.5 20.5C40.5 31.5457 31.5457 40.5 20.5 40.5C9.45431 40.5 0.5 31.5457 0.5 20.5ZM28.125 14.875C29 14.75 29.75 14.625 30.5 14.25C30 15.125 29.25 15.875 28.375 16.375C28.625 22.25 24.375 28.625 16.75 28.625C14.5 28.625 12.375 27.875 10.5 26.75C12.625 27 14.875 26.375 16.375 25.25C14.5 25.25 13 24 12.5 22.375C13.125 22.5 13.75 22.375 14.375 22.25C12.5 21.75 11.125 20 11.125 18.125C11.75 18.375 12.375 18.625 13 18.625C11.25 17.375 10.625 15 11.75 13.125C13.875 15.625 16.875 17.25 20.25 17.375C19.625 14.875 21.625 12.375 24.25 12.375C25.375 12.375 26.5 12.875 27.25 13.625C28.25 13.375 29.125 13.125 29.875 12.625C29.625 13.625 29 14.375 28.125 14.875Z" fill="#0A181F"/>
</svg>
