<svg width="41" height="41" viewBox="0 0 41 41" fill="none" xmlns="http://www.w3.org/2000/svg">
<path d="M20.5 24C18.625 24 17 22.5 17 20.5C17 18.625 18.5 17 20.5 17C22.375 17 24 18.5 24 20.5C24 22.375 22.375 24 20.5 24Z" fill="#0A181F"/>
<path fill-rule="evenodd" clip-rule="evenodd" d="M24.75 12H16.25C15.25 12.125 14.75 12.25 14.375 12.375C13.875 12.5 13.5 12.75 13.125 13.125C12.8283 13.4217 12.6881 13.7185 12.5186 14.0771C12.4739 14.1717 12.4271 14.2707 12.375 14.375C12.3557 14.433 12.3333 14.494 12.3094 14.5594C12.1786 14.9167 12 15.4047 12 16.25V24.75C12.125 25.75 12.25 26.25 12.375 26.625C12.5 27.125 12.75 27.5 13.125 27.875C13.4217 28.1717 13.7185 28.3119 14.0771 28.4814C14.1717 28.5261 14.2706 28.5728 14.375 28.625C14.433 28.6443 14.494 28.6667 14.5594 28.6906C14.9167 28.8214 15.4047 29 16.25 29H24.75C25.75 28.875 26.25 28.75 26.625 28.625C27.125 28.5 27.5 28.25 27.875 27.875C28.1717 27.5783 28.3119 27.2815 28.4814 26.9229C28.5261 26.8283 28.5728 26.7293 28.625 26.625C28.6443 26.567 28.6667 26.506 28.6906 26.4406C28.8214 26.0833 29 25.5953 29 24.75V16.25C28.875 15.25 28.75 14.75 28.625 14.375C28.5 13.875 28.25 13.5 27.875 13.125C27.5783 12.8283 27.2815 12.6881 26.9229 12.5186C26.8284 12.474 26.7292 12.4271 26.625 12.375C26.567 12.3557 26.506 12.3333 26.4406 12.3094C26.0833 12.1786 25.5953 12 24.75 12ZM20.5 15.125C17.5 15.125 15.125 17.5 15.125 20.5C15.125 23.5 17.5 25.875 20.5 25.875C23.5 25.875 25.875 23.5 25.875 20.5C25.875 17.5 23.5 15.125 20.5 15.125ZM27.25 15C27.25 15.6904 26.6904 16.25 26 16.25C25.3096 16.25 24.75 15.6904 24.75 15C24.75 14.3096 25.3096 13.75 26 13.75C26.6904 13.75 27.25 14.3096 27.25 15Z" fill="#0A181F"/>
<path fill-rule="evenodd" clip-rule="evenodd" d="M0.5 20.5C0.5 9.45431 9.45431 0.5 20.5 0.5C31.5457 0.5 40.5 9.45431 40.5 20.5C40.5 31.5457 31.5457 40.5 20.5 40.5C9.45431 40.5 0.5 31.5457 0.5 20.5ZM16.25 10.125H24.75C25.875 10.25 26.625 10.375 27.25 10.625C28 11 28.5 11.25 29.125 11.875C29.75 12.5 30.125 13.125 30.375 13.75C30.625 14.375 30.875 15.125 30.875 16.25V24.75C30.75 25.875 30.625 26.625 30.375 27.25C30 28 29.75 28.5 29.125 29.125C28.5 29.75 27.875 30.125 27.25 30.375C26.625 30.625 25.875 30.875 24.75 30.875H16.25C15.125 30.75 14.375 30.625 13.75 30.375C13 30 12.5 29.75 11.875 29.125C11.25 28.5 10.875 27.875 10.625 27.25C10.375 26.625 10.125 25.875 10.125 24.75V16.25C10.25 15.125 10.375 14.375 10.625 13.75C11 13 11.25 12.5 11.875 11.875C12.5 11.25 13.125 10.875 13.75 10.625C14.375 10.375 15.125 10.125 16.25 10.125Z" fill="#0A181F"/>
</svg>
