<svg width="41" height="41" viewBox="0 0 41 41" fill="none" xmlns="http://www.w3.org/2000/svg">
<path fill-rule="evenodd" clip-rule="evenodd" d="M0.5 20.5C0.5 9.45431 9.45431 0.5 20.5 0.5C31.5457 0.5 40.5 9.45431 40.5 20.5C40.5 31.5457 31.5457 40.5 20.5 40.5C9.45431 40.5 0.5 31.5457 0.5 20.5ZM20.5 10.5C26 10.5 30.5 15 30.5 20.5C30.5 25.5 26.875 29.75 21.875 30.5V23.375H24.25L24.75 20.5H22V18.625C22 17.875 22.375 17.125 23.625 17.125H24.875V14.625C24.875 14.625 23.75 14.375 22.625 14.375C20.375 14.375 18.875 15.75 18.875 18.25V20.5H16.375V23.375H18.875V30.375C14.125 29.625 10.5 25.5 10.5 20.5C10.5 15 15 10.5 20.5 10.5Z" fill="#0A181F"/>
</svg>
